<svg id="svg" version="1.1" xmlns="http://www.w3.org/2000/svg" xmlns:xlink="http://www.w3.org/1999/xlink" width="400" height="187.08333333333331" viewBox="0, 0, 400,187.08333333333331"><g id="svgg"><path id="path0" d="M0.000 93.545 L 0.000 187.091 200.000 187.091 L 400.000 187.091 400.000 93.545 L 400.000 0.000 200.000 0.000 L 0.000 0.000 0.000 93.545 M126.140 40.628 C 129.485 42.314,129.859 47.097,126.801 49.069 C 126.344 49.364,126.286 49.514,126.286 50.414 C 126.286 51.679,125.947 51.539,130.127 51.999 C 132.079 52.214,134.266 52.468,134.986 52.564 C 135.706 52.660,136.988 52.831,137.834 52.945 C 138.681 53.059,140.154 53.226,141.109 53.318 C 142.063 53.409,144.359 53.658,146.211 53.871 C 156.685 55.074,156.034 54.413,156.034 63.851 L 156.034 69.987 156.609 71.092 C 158.023 73.809,157.983 77.988,156.507 81.747 C 156.067 82.867,156.034 83.175,156.034 86.103 C 156.034 90.978,155.893 91.159,150.558 93.163 C 148.579 93.906,145.678 95.012,144.111 95.620 C 142.544 96.228,141.187 96.726,141.095 96.726 C 141.002 96.726,140.558 96.889,140.108 97.088 L 139.289 97.450 139.383 101.513 L 139.476 105.576 140.505 105.982 C 142.376 106.721,142.932 107.015,144.016 107.841 C 145.832 109.225,147.468 111.331,148.281 113.330 C 148.502 113.875,148.738 114.375,148.804 114.441 C 148.870 114.508,148.924 114.751,148.924 114.983 C 148.924 115.727,149.132 115.987,150.114 116.476 C 152.654 117.742,154.688 120.920,154.762 123.738 C 154.795 124.978,154.784 124.991,153.321 125.533 C 152.382 125.881,151.977 125.929,150.849 125.830 C 148.675 125.638,148.425 125.497,148.320 124.408 C 148.198 123.135,146.894 121.422,146.047 121.422 C 145.828 121.422,145.370 122.546,145.370 123.085 C 145.370 123.740,145.357 123.750,143.791 124.298 C 142.534 124.737,139.841 124.670,139.242 124.185 C 138.893 123.901,138.960 122.370,139.375 121.163 C 140.171 118.848,141.397 117.734,144.107 116.862 C 145.589 116.384,141.370 110.595,139.523 110.572 C 139.446 110.571,139.383 111.992,139.383 113.728 C 139.383 116.262,139.329 116.931,139.111 117.112 C 138.816 117.356,136.590 118.243,134.811 118.825 C 134.201 119.024,133.612 119.255,133.502 119.337 C 133.392 119.418,132.944 119.588,132.507 119.713 C 132.070 119.838,131.708 120.042,131.703 120.167 C 131.698 120.291,131.702 121.604,131.712 123.084 C 131.731 125.969,131.681 125.773,132.957 127.931 C 133.914 129.548,134.819 135.153,134.728 138.897 C 134.690 140.446,133.710 141.156,130.425 142.015 C 126.853 142.949,123.210 141.928,123.042 139.944 C 123.003 139.485,122.906 139.310,122.719 139.359 C 122.571 139.397,122.030 139.540,121.515 139.676 C 119.746 140.143,115.236 140.536,112.369 140.473 L 109.602 140.412 109.139 139.872 C 108.140 138.711,109.231 136.473,111.543 134.940 C 112.142 134.543,112.262 134.338,112.433 133.424 C 112.686 132.075,113.562 128.870,113.746 128.625 C 113.824 128.522,113.942 128.207,114.009 127.924 C 114.077 127.642,114.639 126.567,115.258 125.536 L 116.384 123.662 116.330 121.840 L 116.277 120.019 115.248 119.888 C 114.682 119.816,113.123 119.659,111.784 119.538 L 109.349 119.318 107.970 119.904 C 106.679 120.454,106.496 120.483,105.073 120.370 C 103.113 120.213,102.952 120.119,102.790 119.036 C 102.395 116.393,99.906 115.112,99.906 117.551 C 99.906 119.153,94.642 120.269,93.601 118.887 C 92.281 117.136,95.043 112.425,97.942 111.484 C 98.961 111.153,99.157 110.981,99.165 110.407 C 99.180 109.222,101.502 104.962,102.135 104.957 C 102.195 104.957,102.514 104.704,102.843 104.396 C 103.757 103.539,105.876 102.560,107.369 102.304 L 108.700 102.075 108.703 100.944 C 108.706 99.466,108.775 99.384,110.504 98.785 C 114.001 97.573,118.099 96.007,118.300 95.807 C 118.498 95.608,116.888 95.387,108.606 94.477 C 107.680 94.375,105.912 94.166,104.677 94.011 C 103.442 93.857,100.933 93.559,99.101 93.350 C 91.884 92.525,92.163 92.904,92.092 83.817 C 92.042 77.366,92.042 77.362,91.582 76.504 C 90.229 73.975,90.223 69.548,91.569 66.183 C 92.015 65.069,92.049 64.771,92.049 61.948 C 92.049 57.437,92.582 56.271,95.050 55.386 C 95.611 55.185,97.544 54.457,99.345 53.769 C 101.146 53.081,103.124 52.332,103.742 52.105 C 104.359 51.878,105.101 51.596,105.391 51.478 C 105.681 51.359,105.998 51.263,106.095 51.263 C 106.193 51.263,106.419 51.183,106.597 51.086 C 109.177 49.680,111.909 49.595,118.896 50.707 C 119.514 50.805,120.461 50.886,121.001 50.887 L 121.983 50.889 121.983 50.232 C 121.983 49.791,121.853 49.469,121.587 49.250 C 118.334 46.574,118.568 42.440,122.077 40.628 C 123.134 40.081,125.056 40.082,126.140 40.628 M127.255 44.933 C 127.237 45.414,127.173 45.961,127.114 46.149 C 127.013 46.471,127.020 46.472,127.218 46.163 C 127.334 45.982,127.398 45.435,127.359 44.947 L 127.289 44.060 127.255 44.933 M123.349 51.263 C 123.349 51.829,123.384 52.060,123.427 51.777 C 123.470 51.494,123.470 51.031,123.427 50.748 C 123.384 50.465,123.349 50.697,123.349 51.263 M99.579 63.553 C 99.759 63.600,100.054 63.600,100.234 63.553 C 100.414 63.506,100.267 63.467,99.906 63.467 C 99.546 63.467,99.399 63.506,99.579 63.553 M104.630 64.114 C 104.811 64.161,105.105 64.161,105.285 64.114 C 105.465 64.067,105.318 64.028,104.958 64.028 C 104.598 64.028,104.450 64.067,104.630 64.114 M120.533 65.985 C 120.713 66.032,121.008 66.032,121.188 65.985 C 121.368 65.938,121.221 65.899,120.861 65.899 C 120.500 65.899,120.353 65.938,120.533 65.985 M125.023 66.546 C 125.203 66.593,125.498 66.593,125.678 66.546 C 125.858 66.499,125.711 66.461,125.351 66.461 C 124.991 66.461,124.843 66.499,125.023 66.546 M131.572 67.295 C 131.752 67.342,132.046 67.342,132.226 67.295 C 132.406 67.247,132.259 67.209,131.899 67.209 C 131.539 67.209,131.391 67.247,131.572 67.295 M153.670 75.491 C 153.670 76.520,153.702 76.917,153.740 76.374 C 153.778 75.830,153.777 74.988,153.739 74.503 C 153.700 74.017,153.669 74.462,153.670 75.491 M155.348 76.146 C 155.348 76.918,155.381 77.233,155.422 76.848 C 155.462 76.462,155.462 75.830,155.422 75.444 C 155.381 75.058,155.348 75.374,155.348 76.146 M153.312 81.930 C 153.214 82.024,152.923 82.139,152.666 82.185 L 152.198 82.269 152.690 82.294 C 152.960 82.308,153.286 82.194,153.414 82.039 C 153.669 81.733,153.596 81.655,153.312 81.930 M225.494 82.931 C 229.599 84.152,231.246 86.523,231.618 91.742 C 232.201 99.929,230.430 103.873,225.631 105.075 C 222.449 105.873,179.410 105.977,175.943 105.196 C 170.812 104.039,169.140 100.927,169.383 92.984 C 169.586 86.308,171.842 83.263,176.988 82.718 C 180.235 82.374,224.272 82.568,225.494 82.931 M122.846 96.131 C 122.794 96.215,122.999 96.248,123.303 96.203 C 123.606 96.159,123.854 96.090,123.854 96.050 C 123.854 95.907,122.939 95.981,122.846 96.131 M124.731 96.286 C 124.984 96.341,125.172 96.551,125.222 96.833 C 125.292 97.232,125.300 97.225,125.280 96.775 C 125.262 96.364,125.162 96.252,124.790 96.228 C 124.400 96.202,124.390 96.212,124.731 96.286 M123.620 98.355 C 123.852 98.399,124.231 98.399,124.462 98.355 C 124.694 98.310,124.504 98.274,124.041 98.274 C 123.578 98.274,123.389 98.310,123.620 98.355 M107.442 107.010 C 106.303 107.281,104.907 108.509,104.199 109.862 C 103.698 110.818,103.708 110.845,104.834 111.488 C 105.907 112.103,107.420 113.599,108.114 114.733 C 108.350 115.119,108.578 115.435,108.621 115.435 C 108.664 115.435,108.700 113.499,108.700 111.132 C 108.700 106.356,108.801 106.687,107.442 107.010 M117.947 120.360 C 117.895 120.496,117.877 121.402,117.908 122.371 L 117.964 124.135 118.056 122.123 C 118.147 120.130,118.132 119.880,117.947 120.360 M121.238 122.848 C 121.241 124.978,121.261 125.089,121.713 125.517 C 122.557 126.319,123.293 128.236,123.803 130.964 L 123.960 131.805 124.310 130.496 C 124.773 128.761,125.335 127.505,126.165 126.349 L 126.848 125.400 126.848 123.344 L 126.848 121.288 125.210 121.077 C 124.310 120.960,123.047 120.811,122.404 120.745 L 121.235 120.625 121.238 122.848 M128.427 123.386 L 128.438 125.444 129.234 125.463 L 130.031 125.481 129.287 125.405 L 128.544 125.330 128.480 123.329 L 128.417 121.328 128.427 123.386 " stroke="none" fill="#44bcdc" fill-rule="evenodd"></path><path id="path1" d="M122.264 41.123 C 119.334 42.551,118.907 45.941,121.353 48.352 C 122.361 49.344,122.661 50.077,122.434 50.983 L 122.304 51.500 120.685 51.377 C 119.794 51.310,117.385 51.046,115.332 50.791 C 109.830 50.108,110.800 49.976,104.958 52.199 C 102.746 53.041,99.925 54.106,98.690 54.567 C 92.492 56.879,92.750 56.579,92.597 61.646 C 92.494 65.054,92.464 65.274,91.869 66.978 C 90.766 70.134,90.871 74.370,92.102 76.330 C 92.503 76.968,92.518 77.189,92.613 83.630 C 92.740 92.267,92.670 92.126,97.040 92.604 C 97.947 92.703,99.743 92.914,101.029 93.073 C 102.315 93.231,104.125 93.445,105.051 93.547 C 105.978 93.650,107.830 93.863,109.167 94.022 C 110.505 94.180,112.273 94.385,113.096 94.476 C 119.319 95.165,120.266 95.348,119.822 95.774 C 119.567 96.020,110.916 99.262,109.495 99.645 C 109.337 99.687,109.261 100.122,109.261 100.986 C 109.261 102.457,109.093 102.713,108.125 102.713 C 104.723 102.713,100.433 106.448,99.796 109.963 C 99.573 111.198,99.228 111.660,98.362 111.889 C 95.849 112.551,93.936 115.149,93.923 117.914 L 93.920 118.803 94.936 118.803 C 95.496 118.803,96.168 118.884,96.430 118.984 C 96.807 119.127,97.097 119.069,97.825 118.703 C 98.331 118.449,98.880 118.241,99.045 118.241 C 99.264 118.241,99.345 118.062,99.345 117.577 C 99.345 114.593,102.800 115.665,103.216 118.778 C 103.343 119.730,103.514 119.930,104.100 119.815 C 104.315 119.773,104.919 119.818,105.442 119.914 C 106.279 120.067,106.506 120.034,107.313 119.638 C 107.819 119.391,108.371 119.186,108.542 119.183 C 108.796 119.178,108.834 119.034,108.755 118.382 C 108.399 115.423,106.879 113.135,104.383 111.800 C 103.199 111.167,103.119 110.953,103.644 109.831 C 104.509 107.985,106.861 106.268,108.524 106.268 C 109.257 106.268,109.291 106.584,109.228 112.797 L 109.167 118.786 109.597 118.893 C 109.833 118.953,110.092 118.961,110.173 118.911 C 110.511 118.702,116.312 119.479,116.698 119.785 C 117.227 120.206,117.000 123.734,116.385 124.646 C 114.884 126.870,113.467 130.350,113.089 132.741 C 112.843 134.304,112.625 134.686,111.482 135.566 C 109.411 137.159,108.588 139.245,109.827 139.759 C 111.098 140.285,119.033 139.838,121.609 139.095 C 123.303 138.606,123.366 138.620,123.488 139.507 C 123.967 143.004,133.743 142.432,134.229 138.879 C 134.632 135.934,133.279 129.232,131.822 126.955 L 131.151 125.905 131.151 122.919 C 131.151 120.029,131.164 119.925,131.572 119.660 C 132.080 119.330,136.876 117.478,138.120 117.131 L 139.008 116.883 139.008 113.534 C 139.008 109.772,139.031 109.714,140.273 110.296 C 142.098 111.152,144.347 113.886,144.808 115.807 C 145.088 116.973,144.989 117.113,143.559 117.575 C 141.579 118.215,140.334 119.571,139.732 121.744 C 139.162 123.799,139.140 123.758,140.930 124.024 C 143.147 124.354,144.995 123.793,144.995 122.789 C 144.995 119.836,148.424 121.069,148.736 124.135 L 148.831 125.070 149.953 125.230 C 151.636 125.469,152.286 125.435,153.382 125.048 L 154.379 124.696 154.267 123.667 C 153.940 120.676,152.393 118.214,150.144 117.107 C 148.691 116.392,148.662 116.358,148.367 115.100 C 147.533 111.544,142.795 106.455,140.317 106.455 C 140.205 106.455,139.864 106.326,139.560 106.169 L 139.008 105.884 139.008 101.875 L 139.008 97.865 138.354 97.743 C 137.568 97.595,137.510 97.374,138.213 97.201 C 138.749 97.070,147.850 93.700,148.831 93.270 C 149.139 93.135,150.276 92.710,151.356 92.326 C 155.462 90.869,155.659 90.564,155.659 85.691 C 155.659 83.937,155.736 82.356,155.830 82.177 C 157.375 79.242,157.504 74.099,156.106 71.202 C 155.664 70.285,155.659 70.221,155.659 64.206 C 155.659 57.476,155.606 57.076,154.558 56.055 C 153.743 55.261,154.229 55.346,143.218 54.068 C 138.793 53.554,134.500 53.051,133.676 52.949 C 132.853 52.847,131.043 52.634,129.654 52.475 C 125.427 51.992,125.725 52.145,125.725 50.445 C 125.725 49.519,125.772 49.426,126.682 48.543 C 130.522 44.818,126.959 38.834,122.264 41.123 M125.805 41.738 C 129.243 43.581,127.932 48.625,124.010 48.641 C 121.813 48.650,120.333 46.938,120.526 44.611 C 120.742 42.013,123.508 40.507,125.805 41.738 M125.059 51.201 C 125.046 52.701,124.822 53.134,124.056 53.134 C 123.261 53.134,123.106 52.820,123.106 51.216 L 123.106 49.747 124.088 49.803 L 125.070 49.860 125.059 51.201 M102.432 63.418 C 103.358 63.518,104.832 63.687,105.706 63.794 C 106.581 63.902,108.391 64.114,109.729 64.267 C 111.066 64.420,112.877 64.632,113.751 64.738 C 114.626 64.845,116.436 65.057,117.774 65.210 C 119.111 65.363,120.837 65.568,121.609 65.667 C 122.381 65.766,123.854 65.934,124.883 66.041 C 125.912 66.149,127.343 66.313,128.064 66.406 C 128.784 66.500,130.173 66.679,131.151 66.804 C 132.128 66.930,133.033 67.115,133.162 67.216 C 133.344 67.358,133.396 69.877,133.396 78.681 C 133.396 91.049,133.433 90.638,132.313 90.458 C 131.378 90.309,127.092 89.797,120.580 89.056 C 118.015 88.765,104.810 87.213,102.058 86.879 C 100.617 86.705,99.333 86.481,99.205 86.382 C 99.022 86.242,98.971 83.689,98.971 74.735 C 98.971 65.735,99.021 63.248,99.205 63.176 C 99.333 63.126,99.733 63.119,100.094 63.161 C 100.454 63.203,101.506 63.319,102.432 63.418 M149.350 66.472 C 150.049 66.776,153.210 69.265,153.220 69.520 C 153.224 69.631,152.882 70.000,152.459 70.340 C 149.366 72.825,148.467 80.535,150.888 83.816 C 151.582 84.757,151.537 84.813,149.237 85.852 C 146.476 87.100,146.022 87.107,144.841 85.921 C 140.069 81.129,144.005 64.151,149.350 66.472 M92.594 71.562 C 92.604 74.102,92.435 75.052,92.074 74.492 C 91.634 73.810,91.656 69.441,92.104 68.573 C 92.446 67.909,92.583 68.742,92.594 71.562 M154.854 71.011 C 155.354 71.467,155.358 71.484,154.941 71.368 C 154.701 71.301,154.082 71.249,153.566 71.253 C 152.648 71.260,152.634 71.252,152.956 70.897 C 153.415 70.390,154.226 70.439,154.854 71.011 M103.812 72.245 C 102.574 72.962,102.107 75.090,102.873 76.518 C 103.892 78.418,106.289 78.971,107.489 77.584 C 109.747 74.971,106.711 70.563,103.812 72.245 M154.621 72.141 C 156.498 74.018,156.062 79.847,153.881 82.028 C 152.851 83.058,151.487 82.692,152.054 81.537 C 153.138 79.329,153.617 76.302,153.287 73.757 C 153.038 71.848,153.622 71.142,154.621 72.141 M127.275 74.677 C 125.776 75.092,125.118 77.253,125.922 79.121 C 127.211 82.118,131.338 81.500,131.338 78.310 C 131.338 75.934,129.304 74.116,127.275 74.677 M112.516 76.034 C 112.141 77.011,114.479 79.545,116.370 80.212 C 118.298 80.893,121.006 79.806,121.736 78.059 C 122.305 76.698,121.509 76.266,120.493 77.383 C 118.572 79.494,115.849 79.120,113.860 76.473 C 113.325 75.761,112.699 75.557,112.516 76.034 M151.940 83.080 C 152.144 83.190,152.644 83.284,153.050 83.289 C 153.901 83.301,153.994 83.476,153.312 83.787 C 152.579 84.121,151.970 84.048,151.648 83.588 C 151.167 82.902,151.271 82.722,151.940 83.080 M174.934 87.423 C 174.032 87.882,173.987 88.201,174.039 93.796 L 174.088 99.004 174.613 99.455 L 175.138 99.906 200.000 99.906 L 224.862 99.906 225.387 99.455 L 225.912 99.003 225.912 93.567 C 225.912 88.159,225.910 88.128,225.486 87.704 L 225.060 87.278 200.229 87.233 C 180.547 87.197,175.301 87.236,174.934 87.423 M201.310 92.633 C 201.310 93.463,201.347 93.560,201.590 93.358 C 201.745 93.230,201.871 93.009,201.871 92.868 C 201.871 92.570,202.724 92.512,202.900 92.797 C 202.964 92.900,202.919 92.984,202.800 92.984 C 202.682 92.984,202.381 93.145,202.131 93.341 L 201.677 93.698 202.463 94.370 L 203.248 95.042 202.559 95.042 C 202.099 95.042,201.871 94.957,201.871 94.784 C 201.871 94.643,201.745 94.422,201.590 94.294 C 201.353 94.097,201.310 94.137,201.310 94.551 C 201.310 94.960,201.225 95.042,200.804 95.042 C 200.412 95.042,200.349 94.992,200.524 94.818 C 200.834 94.507,200.826 91.924,200.514 91.798 C 200.386 91.746,200.512 91.697,200.795 91.689 C 201.291 91.675,201.310 91.708,201.310 92.633 M196.913 92.049 C 196.849 92.152,196.676 92.236,196.528 92.236 C 196.325 92.236,196.258 92.495,196.258 93.277 C 196.258 94.927,195.580 95.493,194.375 94.848 C 193.928 94.609,193.862 93.545,194.294 93.545 C 194.465 93.545,194.574 93.720,194.574 93.993 C 194.574 94.472,194.958 94.724,195.416 94.548 C 195.888 94.368,195.812 92.236,195.334 92.236 C 195.134 92.236,194.919 92.152,194.855 92.049 C 194.783 91.932,195.169 91.862,195.884 91.862 C 196.599 91.862,196.985 91.932,196.913 92.049 M199.425 93.103 C 200.348 94.276,198.898 95.737,197.643 94.899 C 196.597 94.201,197.130 92.610,198.410 92.610 C 198.865 92.610,199.144 92.745,199.425 93.103 M205.611 93.026 C 206.235 93.695,206.028 94.000,204.878 94.107 C 203.970 94.191,203.900 94.227,204.191 94.467 C 204.461 94.690,204.624 94.695,205.171 94.497 C 205.909 94.230,206.157 94.332,205.804 94.757 C 205.145 95.550,203.368 94.895,203.368 93.859 C 203.368 92.674,204.791 92.145,205.611 93.026 M197.862 93.278 C 197.700 93.440,197.568 93.686,197.568 93.826 C 197.568 94.480,198.567 94.903,199.027 94.443 C 199.487 93.984,199.064 92.984,198.410 92.984 C 198.270 92.984,198.024 93.116,197.862 93.278 M204.090 93.352 L 203.648 93.720 204.537 93.726 C 205.465 93.733,205.681 93.508,205.064 93.178 C 204.593 92.926,204.604 92.923,204.090 93.352 M125.177 96.002 C 125.915 96.279,125.966 98.327,125.243 98.602 C 124.620 98.839,123.449 98.834,122.812 98.592 C 122.330 98.409,122.220 96.467,122.652 95.768 C 122.762 95.590,124.512 95.752,125.177 96.002 M109.224 104.338 C 109.287 105.441,109.159 105.570,107.796 105.779 C 105.511 106.128,103.044 108.520,102.616 110.801 C 102.371 112.110,100.426 112.192,100.317 110.898 C 100.048 107.726,104.897 103.202,108.419 103.339 L 109.167 103.368 109.224 104.338 M118.616 104.186 C 122.419 104.626,123.172 104.931,123.880 106.318 C 124.990 108.494,123.746 110.481,121.278 110.472 C 119.149 110.465,118.766 110.325,118.838 109.582 C 118.903 108.909,118.906 108.909,121.168 109.174 C 122.455 109.325,122.925 108.971,122.958 107.825 C 122.999 106.393,122.414 106.032,119.551 105.725 C 118.471 105.610,116.916 105.427,116.097 105.320 C 114.305 105.085,113.816 105.262,113.639 106.207 C 113.368 107.650,114.165 108.389,116.186 108.569 C 117.823 108.715,118.054 108.823,118.054 109.448 C 118.054 110.138,117.809 110.203,116.065 109.975 C 113.531 109.644,112.442 108.571,112.442 106.406 C 112.442 103.923,113.387 103.582,118.616 104.186 M137.699 106.556 C 142.556 107.022,147.224 111.284,147.884 115.856 C 148.175 117.876,146.024 117.559,145.381 115.488 C 144.325 112.086,141.121 109.291,137.792 108.870 C 135.011 108.518,134.900 108.466,134.895 107.518 C 134.890 106.604,135.216 106.217,135.891 106.336 C 136.216 106.393,137.030 106.492,137.699 106.556 M115.053 113.836 C 115.550 114.434,114.821 115.354,114.172 114.947 C 113.557 114.562,113.633 113.564,114.278 113.564 C 114.580 113.564,114.929 113.686,115.053 113.836 M123.012 115.248 C 123.012 116.111,122.189 116.315,121.835 115.540 C 121.515 114.837,121.733 114.469,122.428 114.536 C 122.960 114.588,123.012 114.651,123.012 115.248 M119.785 120.051 C 120.010 120.184,119.954 124.750,119.726 124.891 C 119.397 125.094,118.246 124.794,117.857 124.405 C 117.338 123.886,117.308 120.241,117.820 119.935 C 118.113 119.761,119.424 119.838,119.785 120.051 M124.790 120.487 C 127.563 120.808,127.409 120.645,127.409 123.263 C 127.409 125.396,127.392 125.487,126.867 126.203 C 125.512 128.050,124.694 130.404,124.238 133.770 C 123.878 136.428,123.840 136.603,123.631 136.533 C 123.503 136.490,123.442 135.794,123.464 134.604 C 123.530 130.877,122.762 127.630,121.408 125.917 L 120.674 124.988 120.674 122.675 C 120.674 119.706,120.203 119.956,124.790 120.487 M130.360 122.976 L 130.412 125.715 129.938 125.834 C 129.678 125.900,129.170 125.898,128.811 125.831 L 128.157 125.708 128.157 123.407 C 128.157 120.886,128.214 120.744,129.373 120.339 C 130.286 120.021,130.306 120.072,130.360 122.976 " stroke="none" fill="#c62c61" fill-rule="evenodd"></path><path id="path2" d="M123.761 41.636 C 123.658 41.665,123.340 41.740,123.054 41.803 C 120.119 42.451,119.974 46.890,122.853 47.989 C 125.684 49.071,128.175 46.235,126.956 43.318 C 126.547 42.340,124.708 41.372,123.761 41.636 M123.518 51.297 C 123.579 52.792,124.405 53.519,124.701 52.338 C 125.011 51.103,124.732 50.050,124.079 49.988 L 123.463 49.928 123.518 51.297 M99.280 64.456 C 99.111 65.689,99.131 85.730,99.302 85.998 C 99.381 86.123,100.876 86.384,102.807 86.612 C 109.487 87.398,110.875 87.563,112.348 87.749 C 113.763 87.928,120.624 88.731,125.862 89.332 C 127.176 89.483,129.260 89.728,130.493 89.876 C 131.726 90.025,132.799 90.106,132.878 90.057 C 133.056 89.947,133.034 68.560,132.855 67.914 C 132.711 67.391,132.407 67.333,126.567 66.703 C 125.023 66.537,123.634 66.364,123.480 66.319 C 123.326 66.275,122.021 66.113,120.580 65.959 C 118.040 65.688,116.626 65.523,109.916 64.713 C 103.892 63.987,102.054 63.778,100.730 63.672 L 99.402 63.565 99.280 64.456 M147.323 66.955 C 143.428 69.330,141.649 78.993,144.168 84.083 C 145.413 86.598,146.142 86.811,148.992 85.491 C 151.042 84.541,150.975 84.645,150.232 83.588 C 148.174 80.661,149.113 73.109,151.871 70.410 C 152.886 69.416,152.915 69.514,151.216 68.176 C 149.012 66.441,148.453 66.266,147.323 66.955 M92.092 71.656 C 92.092 72.016,92.131 72.163,92.178 71.983 C 92.225 71.803,92.225 71.508,92.178 71.328 C 92.131 71.148,92.092 71.296,92.092 71.656 M106.209 71.855 C 108.667 72.784,109.298 76.712,107.225 78.188 C 106.357 78.807,104.851 78.731,103.869 78.019 C 100.638 75.679,102.607 70.494,106.209 71.855 M153.510 72.402 C 153.447 72.503,153.483 72.903,153.591 73.290 C 154.114 75.172,153.316 80.961,152.461 81.489 C 152.120 81.700,152.297 82.133,152.724 82.133 C 154.506 82.133,155.947 76.908,155.018 73.819 C 154.633 72.540,153.868 71.821,153.510 72.402 M128.946 74.470 C 131.813 75.267,132.482 79.305,130.024 80.976 C 127.833 82.465,124.607 79.468,125.366 76.649 C 125.879 74.746,127.151 73.972,128.946 74.470 M113.721 75.999 C 116.088 78.861,119.049 79.299,120.548 77.010 C 121.187 76.035,122.170 76.246,122.170 77.357 C 122.170 78.114,121.329 79.309,120.387 79.892 C 117.698 81.553,114.370 80.408,112.582 77.206 C 111.760 75.735,112.689 74.751,113.721 75.999 M200.702 91.798 C 200.861 91.863,200.935 92.361,200.935 93.358 C 200.935 94.356,200.861 94.854,200.702 94.918 C 200.562 94.975,200.600 95.019,200.795 95.027 C 201.018 95.037,201.123 94.902,201.123 94.606 C 201.123 94.365,201.179 94.113,201.248 94.044 C 201.414 93.877,202.058 94.471,202.058 94.790 C 202.058 94.943,202.260 95.037,202.572 95.029 C 203.042 95.018,203.054 95.001,202.713 94.830 C 202.033 94.491,201.615 93.760,201.902 93.412 C 202.125 93.142,202.108 93.133,201.743 93.328 C 201.140 93.649,201.123 93.628,201.123 92.610 C 201.123 91.838,201.065 91.677,200.795 91.689 C 200.600 91.698,200.562 91.742,200.702 91.798 M195.370 91.996 C 195.868 92.071,195.884 92.110,195.884 93.254 C 195.884 94.952,194.831 95.517,194.406 94.048 L 194.234 93.452 194.217 94.053 C 194.197 94.756,194.717 95.141,195.440 94.959 C 195.998 94.819,196.258 94.191,196.258 92.986 C 196.258 92.277,196.330 92.057,196.586 91.991 C 196.766 91.943,196.450 91.908,195.884 91.911 C 195.318 91.915,195.087 91.953,195.370 91.996 M197.485 93.213 C 197.103 93.759,197.117 93.959,197.581 94.549 C 198.257 95.409,199.626 94.944,199.626 93.855 C 199.626 92.858,198.062 92.389,197.485 93.213 M203.659 93.213 C 202.874 94.334,204.413 95.613,205.530 94.767 C 205.970 94.434,205.801 94.403,205.154 94.698 C 204.586 94.956,203.742 94.661,203.742 94.204 C 203.742 93.984,203.974 93.920,204.771 93.920 C 205.884 93.920,206.089 93.678,205.458 93.107 C 204.956 92.653,204.012 92.708,203.659 93.213 M199.245 93.346 C 199.517 93.854,199.487 94.219,199.145 94.561 C 198.388 95.318,197.174 94.488,197.558 93.477 C 197.798 92.848,198.931 92.759,199.245 93.346 M205.354 93.312 C 205.668 93.624,205.641 93.642,204.786 93.697 C 203.765 93.763,203.588 93.675,203.925 93.269 C 204.242 92.887,204.948 92.908,205.354 93.312 M122.872 96.270 C 122.684 96.463,122.698 97.693,122.892 97.999 C 122.998 98.166,123.395 98.225,124.152 98.186 L 125.257 98.129 125.203 97.295 C 125.173 96.836,125.118 96.431,125.082 96.395 C 124.933 96.246,123.002 96.137,122.872 96.270 M106.595 103.959 C 105.283 104.361,104.300 104.977,103.088 106.158 C 101.158 108.037,99.968 111.076,101.029 111.413 C 101.612 111.598,102.151 111.345,102.153 110.885 C 102.162 108.862,105.070 105.964,107.608 105.448 L 108.793 105.208 108.851 104.428 L 108.908 103.648 108.196 103.668 C 107.804 103.678,107.084 103.810,106.595 103.959 M113.805 104.334 C 112.367 105.078,112.266 107.208,113.600 108.627 C 114.487 109.569,117.680 110.245,117.680 109.490 C 117.680 109.085,117.442 108.992,115.903 108.793 C 114.002 108.548,113.377 107.978,113.377 106.489 C 113.377 105.350,114.128 104.693,115.246 104.853 C 115.710 104.920,117.414 105.135,119.033 105.332 C 122.688 105.776,123.293 106.108,123.293 107.671 C 123.293 109.088,122.599 109.515,120.457 109.417 C 118.979 109.350,118.484 109.728,119.645 110.039 C 122.426 110.785,124.420 109.467,123.863 107.254 C 123.379 105.331,122.640 104.915,118.942 104.484 C 114.802 104.001,114.467 103.991,113.805 104.334 M135.245 106.978 C 134.993 107.643,135.306 108.323,135.871 108.334 C 140.474 108.423,144.222 111.081,145.627 115.253 L 146.098 116.651 146.809 116.651 L 147.521 116.651 147.489 115.888 C 147.328 112.070,142.638 107.556,138.255 107.000 C 137.383 106.889,136.392 106.728,136.052 106.641 C 135.490 106.498,135.416 106.529,135.245 106.978 M114.049 113.911 C 113.857 114.221,114.148 114.687,114.533 114.687 C 114.806 114.687,114.884 114.580,114.840 114.268 C 114.778 113.834,114.245 113.594,114.049 113.911 M122.045 114.982 C 121.873 115.432,122.415 115.910,122.704 115.562 C 122.971 115.240,122.795 114.687,122.425 114.687 C 122.278 114.687,122.108 114.819,122.045 114.982 M118.185 120.231 C 118.113 120.303,118.054 121.229,118.054 122.290 L 118.054 124.218 118.662 124.383 C 119.539 124.620,119.551 124.594,119.551 122.346 C 119.551 120.453,119.524 120.299,119.192 120.299 C 118.995 120.299,118.717 120.255,118.574 120.200 C 118.432 120.145,118.257 120.159,118.185 120.231 M129.093 120.915 C 128.641 121.143,128.623 121.223,128.572 123.251 L 128.519 125.351 129.274 125.351 L 130.028 125.351 130.028 123.012 C 130.028 120.511,130.003 120.455,129.093 120.915 " stroke="none" fill="#f0f4f5" fill-rule="evenodd"></path><path id="path3" d="M122.077 40.628 C 118.568 42.440,118.334 46.574,121.587 49.250 C 121.853 49.469,121.983 49.791,121.983 50.232 L 121.983 50.889 121.001 50.887 C 120.461 50.886,119.514 50.805,118.896 50.707 C 111.909 49.595,109.177 49.680,106.597 51.086 C 106.419 51.183,106.193 51.263,106.095 51.263 C 105.998 51.263,105.681 51.359,105.391 51.478 C 105.101 51.596,104.359 51.878,103.742 52.105 C 103.124 52.332,101.146 53.081,99.345 53.769 C 97.544 54.457,95.611 55.185,95.050 55.386 C 92.582 56.271,92.049 57.437,92.049 61.948 C 92.049 64.771,92.015 65.069,91.569 66.183 C 90.223 69.548,90.229 73.975,91.582 76.504 C 92.042 77.362,92.042 77.366,92.092 83.817 C 92.163 92.904,91.884 92.525,99.101 93.350 C 100.933 93.559,103.442 93.857,104.677 94.011 C 105.912 94.166,107.680 94.375,108.606 94.477 C 116.888 95.387,118.498 95.608,118.300 95.807 C 118.099 96.007,114.001 97.573,110.504 98.785 C 108.775 99.384,108.706 99.466,108.703 100.944 L 108.700 102.075 107.369 102.304 C 105.876 102.560,103.757 103.539,102.843 104.396 C 102.514 104.704,102.195 104.957,102.135 104.957 C 101.502 104.962,99.180 109.222,99.165 110.407 C 99.157 110.981,98.961 111.153,97.942 111.484 C 95.043 112.425,92.281 117.136,93.601 118.887 C 94.103 119.554,96.711 119.646,98.223 119.052 C 99.781 118.439,99.906 118.327,99.906 117.551 C 99.906 115.112,102.395 116.393,102.790 119.036 C 102.952 120.119,103.113 120.213,105.073 120.370 C 106.496 120.483,106.679 120.454,107.970 119.904 L 109.349 119.318 111.784 119.538 C 113.123 119.659,114.682 119.816,115.248 119.888 L 116.277 120.019 116.330 121.840 L 116.384 123.662 115.258 125.536 C 114.639 126.567,114.077 127.642,114.009 127.924 C 113.942 128.207,113.824 128.522,113.746 128.625 C 113.562 128.870,112.686 132.075,112.433 133.424 C 112.262 134.338,112.142 134.543,111.543 134.940 C 109.231 136.473,108.140 138.711,109.139 139.872 L 109.602 140.412 112.369 140.473 C 115.236 140.536,119.746 140.143,121.515 139.676 C 122.030 139.540,122.571 139.397,122.719 139.359 C 122.906 139.310,123.003 139.485,123.042 139.944 C 123.210 141.928,126.853 142.949,130.425 142.015 C 133.710 141.156,134.690 140.446,134.728 138.897 C 134.819 135.153,133.914 129.548,132.957 127.931 C 131.681 125.773,131.731 125.969,131.712 123.084 C 131.702 121.604,131.698 120.291,131.703 120.167 C 131.708 120.042,132.070 119.838,132.507 119.713 C 132.944 119.588,133.392 119.418,133.502 119.337 C 133.612 119.255,134.201 119.024,134.811 118.825 C 136.590 118.243,138.816 117.356,139.111 117.112 C 139.329 116.931,139.383 116.262,139.383 113.728 C 139.383 111.992,139.446 110.571,139.523 110.572 C 141.370 110.595,145.589 116.384,144.107 116.862 C 141.397 117.734,140.171 118.848,139.375 121.163 C 138.960 122.370,138.893 123.901,139.242 124.185 C 139.841 124.670,142.534 124.737,143.791 124.298 C 145.357 123.750,145.370 123.740,145.370 123.085 C 145.370 122.546,145.828 121.422,146.047 121.422 C 146.894 121.422,148.198 123.135,148.320 124.408 C 148.425 125.497,148.675 125.638,150.849 125.830 C 151.977 125.929,152.382 125.881,153.321 125.533 C 154.784 124.991,154.795 124.978,154.762 123.738 C 154.688 120.920,152.654 117.742,150.114 116.476 C 149.132 115.987,148.924 115.727,148.924 114.983 C 148.924 114.751,148.870 114.508,148.804 114.441 C 148.738 114.375,148.502 113.875,148.281 113.330 C 147.468 111.331,145.832 109.225,144.016 107.841 C 142.932 107.015,142.376 106.721,140.505 105.982 L 139.476 105.576 139.383 101.513 L 139.289 97.450 140.108 97.088 C 140.558 96.889,141.002 96.726,141.095 96.726 C 141.187 96.726,142.544 96.228,144.111 95.620 C 145.678 95.012,148.579 93.906,150.558 93.163 C 155.893 91.159,156.034 90.978,156.034 86.103 C 156.034 83.175,156.067 82.867,156.507 81.747 C 157.983 77.988,158.023 73.809,156.609 71.092 L 156.034 69.987 156.034 63.851 C 156.034 54.413,156.685 55.074,146.211 53.871 C 144.359 53.658,142.063 53.409,141.109 53.318 C 140.154 53.226,138.681 53.059,137.834 52.945 C 136.988 52.831,135.706 52.660,134.986 52.564 C 134.266 52.468,132.079 52.214,130.127 51.999 C 125.947 51.539,126.286 51.679,126.286 50.414 C 126.286 49.514,126.344 49.364,126.801 49.069 C 131.631 45.956,127.175 37.994,122.077 40.628 M126.006 40.857 C 129.021 42.283,129.524 46.378,126.953 48.576 C 126.238 49.187,126.053 49.473,125.969 50.097 C 125.752 51.717,125.757 51.721,128.761 52.082 C 130.230 52.259,132.778 52.566,134.425 52.764 C 136.071 52.962,140.702 53.511,144.715 53.983 C 148.728 54.456,152.428 54.892,152.937 54.954 C 154.079 55.092,155.361 56.162,155.655 57.224 C 155.765 57.618,155.845 60.481,155.846 64.026 L 155.847 70.148 156.389 71.229 C 157.712 73.870,157.689 77.726,156.326 81.504 C 155.884 82.730,155.846 83.078,155.842 85.991 C 155.836 90.649,155.632 90.962,151.590 92.491 C 148.771 93.558,145.352 94.849,142.750 95.829 C 139.234 97.153,138.821 97.328,138.821 97.496 C 138.821 97.587,138.904 97.661,139.005 97.661 C 139.117 97.661,139.208 99.231,139.239 101.731 L 139.289 105.800 140.131 106.086 C 144.348 107.517,147.798 111.256,148.671 115.341 C 148.815 116.015,148.942 116.146,149.946 116.651 C 152.575 117.975,154.775 121.611,154.507 124.192 C 154.398 125.249,152.741 125.809,150.530 125.538 C 148.492 125.289,148.617 125.370,148.508 124.236 C 148.369 122.788,147.047 121.235,145.954 121.235 C 145.659 121.235,145.182 122.254,145.182 122.886 C 145.182 124.159,142.724 124.698,139.686 124.092 C 139.151 123.985,139.149 123.979,139.261 122.904 C 139.562 120.029,141.029 118.125,143.583 117.296 C 144.832 116.891,144.926 116.301,144.027 114.526 C 143.031 112.560,139.918 109.774,139.351 110.341 C 139.270 110.421,139.182 111.950,139.153 113.738 L 139.102 116.989 135.529 118.317 C 130.929 120.026,131.338 119.580,131.338 122.895 L 131.338 125.632 132.266 127.209 C 133.575 129.434,134.328 133.102,134.393 137.573 L 134.425 139.785 133.837 140.311 C 130.873 142.966,123.293 142.529,123.293 139.702 C 123.293 139.031,123.255 138.974,122.872 139.069 C 118.356 140.189,110.758 140.659,109.583 139.893 C 108.286 139.047,109.345 136.680,111.736 135.079 C 112.335 134.678,112.461 134.466,112.628 133.583 C 113.194 130.587,114.297 127.484,115.423 125.725 C 116.688 123.748,116.745 123.584,116.745 121.926 C 116.745 119.886,116.662 119.791,114.687 119.565 C 113.812 119.465,112.294 119.280,111.313 119.154 C 109.566 118.929,109.508 118.934,108.506 119.395 C 106.540 120.300,106.480 120.311,104.784 120.063 L 103.207 119.832 102.993 118.879 C 102.322 115.884,99.251 114.817,99.580 117.692 C 99.630 118.135,99.558 118.190,97.971 118.911 C 97.063 119.324,96.800 119.372,96.419 119.199 C 96.166 119.084,95.504 118.990,94.946 118.990 C 91.645 118.990,94.706 112.378,98.365 111.604 C 99.046 111.460,99.249 111.181,99.450 110.107 C 100.111 106.584,103.406 103.395,107.203 102.604 C 109.147 102.199,108.962 102.376,109.074 100.815 L 109.167 99.508 110.664 98.989 C 111.974 98.535,114.739 97.513,118.288 96.170 C 118.880 95.947,119.364 95.695,119.364 95.611 C 119.364 95.528,118.880 95.406,118.288 95.340 C 117.017 95.198,115.633 95.035,109.261 94.278 C 103.762 93.625,101.027 93.307,97.452 92.906 C 92.342 92.331,92.243 92.148,92.239 83.295 C 92.236 77.529,92.218 77.218,91.843 76.483 C 90.528 73.906,90.467 70.137,91.684 66.582 C 92.199 65.076,92.236 64.783,92.236 62.148 C 92.236 56.754,92.309 56.663,98.503 54.345 C 100.870 53.459,104.153 52.223,105.800 51.598 C 110.761 49.714,109.213 49.794,118.709 50.929 C 119.738 51.052,120.917 51.157,121.328 51.161 L 122.077 51.169 122.135 50.357 C 122.190 49.595,122.135 49.489,121.239 48.630 C 117.268 44.823,121.118 38.547,126.006 40.857 M127.351 44.643 C 127.474 45.910,127.564 46.086,127.578 45.089 C 127.585 44.626,127.516 44.130,127.426 43.988 C 127.325 43.828,127.296 44.080,127.351 44.643 M121.048 46.831 C 121.048 46.863,121.321 47.137,121.656 47.439 L 122.264 47.989 121.714 47.381 C 121.202 46.814,121.048 46.687,121.048 46.831 M126.193 47.638 C 125.856 47.924,125.788 48.038,126.021 47.922 C 126.364 47.752,127.007 47.136,126.824 47.154 C 126.785 47.157,126.501 47.375,126.193 47.638 M123.620 48.401 C 123.852 48.446,124.231 48.446,124.462 48.401 C 124.694 48.357,124.504 48.320,124.041 48.320 C 123.578 48.320,123.389 48.357,123.620 48.401 M123.379 49.966 C 123.311 50.075,123.306 50.216,123.368 50.277 C 123.429 50.339,123.480 50.282,123.480 50.151 C 123.480 49.989,123.687 49.936,124.122 49.987 C 124.475 50.028,124.722 49.996,124.672 49.914 C 124.536 49.694,123.521 49.735,123.379 49.966 M124.602 52.541 C 124.602 52.661,124.371 52.771,124.088 52.785 C 123.616 52.808,123.610 52.817,124.016 52.894 C 124.471 52.981,124.958 52.679,124.730 52.451 C 124.660 52.381,124.602 52.421,124.602 52.541 M99.231 63.504 C 99.175 63.651,99.166 63.966,99.211 64.205 C 99.276 64.543,99.300 64.508,99.320 64.045 C 99.339 63.587,99.442 63.431,99.766 63.369 L 100.187 63.288 99.760 63.262 C 99.526 63.248,99.287 63.357,99.231 63.504 M103.882 63.927 C 104.062 63.974,104.357 63.974,104.537 63.927 C 104.717 63.880,104.570 63.841,104.210 63.841 C 103.849 63.841,103.702 63.880,103.882 63.927 M108.559 64.488 C 108.739 64.535,109.034 64.535,109.214 64.488 C 109.394 64.441,109.247 64.403,108.887 64.403 C 108.527 64.403,108.379 64.441,108.559 64.488 M110.243 64.675 C 110.423 64.722,110.718 64.722,110.898 64.675 C 111.078 64.628,110.931 64.590,110.571 64.590 C 110.210 64.590,110.063 64.628,110.243 64.675 M111.927 64.862 C 112.107 64.909,112.402 64.909,112.582 64.862 C 112.762 64.815,112.615 64.777,112.254 64.777 C 111.894 64.777,111.747 64.815,111.927 64.862 M113.424 65.049 C 113.604 65.097,113.899 65.097,114.079 65.049 C 114.259 65.002,114.111 64.964,113.751 64.964 C 113.391 64.964,113.244 65.002,113.424 65.049 M114.920 65.237 C 115.101 65.284,115.395 65.284,115.575 65.237 C 115.755 65.189,115.608 65.151,115.248 65.151 C 114.888 65.151,114.740 65.189,114.920 65.237 M119.785 65.798 C 119.965 65.845,120.260 65.845,120.440 65.798 C 120.620 65.751,120.472 65.712,120.112 65.712 C 119.752 65.712,119.605 65.751,119.785 65.798 M126.146 66.546 C 126.326 66.593,126.621 66.593,126.801 66.546 C 126.981 66.499,126.833 66.461,126.473 66.461 C 126.113 66.461,125.966 66.499,126.146 66.546 M127.830 66.733 C 128.010 66.780,128.304 66.780,128.485 66.733 C 128.665 66.686,128.517 66.648,128.157 66.648 C 127.797 66.648,127.650 66.686,127.830 66.733 M130.732 67.111 C 130.965 67.156,131.301 67.154,131.480 67.107 C 131.659 67.060,131.469 67.024,131.057 67.026 C 130.645 67.028,130.499 67.066,130.732 67.111 M133.021 78.896 C 132.970 85.091,132.992 90.095,133.070 90.017 C 133.148 89.939,133.190 84.871,133.163 78.754 L 133.115 67.633 133.021 78.896 M91.975 70.082 C 91.667 70.885,91.898 73.642,92.255 73.421 C 92.347 73.364,92.423 72.570,92.423 71.656 C 92.423 70.093,92.230 69.416,91.975 70.082 M92.185 72.357 C 92.145 72.743,92.112 72.428,92.112 71.656 C 92.112 70.884,92.145 70.568,92.185 70.954 C 92.225 71.340,92.225 71.971,92.185 72.357 M153.297 72.304 C 153.239 72.455,153.235 72.687,153.288 72.819 C 153.341 72.951,153.392 72.875,153.400 72.651 C 153.409 72.383,153.559 72.215,153.835 72.162 L 154.256 72.081 153.829 72.055 C 153.595 72.041,153.355 72.153,153.297 72.304 M149.173 78.672 C 149.174 79.392,149.207 79.664,149.248 79.276 C 149.288 78.887,149.288 78.298,149.246 77.966 C 149.205 77.634,149.172 77.951,149.173 78.672 M154.524 80.480 C 154.387 80.812,154.021 81.383,153.711 81.748 C 153.151 82.409,153.151 82.410,153.673 81.946 C 154.197 81.480,155.011 80.112,154.856 79.957 C 154.811 79.912,154.662 80.147,154.524 80.480 M176.988 82.718 C 171.842 83.263,169.586 86.308,169.383 92.984 C 169.140 100.927,170.812 104.039,175.943 105.196 C 179.410 105.977,222.449 105.873,225.631 105.075 C 230.430 103.873,232.201 99.929,231.618 91.742 C 231.246 86.523,229.599 84.152,225.494 82.931 C 224.272 82.568,180.235 82.374,176.988 82.718 M143.699 83.723 C 143.699 83.826,143.819 84.121,143.966 84.378 C 144.113 84.635,144.234 84.761,144.234 84.659 C 144.234 84.556,144.113 84.261,143.966 84.004 C 143.819 83.746,143.699 83.620,143.699 83.723 M149.298 85.407 C 149.041 85.554,148.915 85.674,149.018 85.674 C 149.121 85.674,149.415 85.554,149.673 85.407 C 149.930 85.260,150.056 85.140,149.953 85.140 C 149.850 85.140,149.556 85.260,149.298 85.407 M145.511 86.202 C 145.820 86.497,146.159 86.616,146.643 86.600 L 147.334 86.576 146.546 86.448 C 146.112 86.377,145.603 86.198,145.414 86.050 C 145.225 85.902,145.269 85.971,145.511 86.202 M225.485 87.540 C 226.032 88.029,226.106 88.221,226.224 89.458 C 226.756 95.000,226.545 98.630,225.640 99.546 C 224.756 100.441,222.609 100.510,199.065 100.403 C 174.559 100.291,174.887 100.308,174.130 99.118 C 173.678 98.406,173.641 88.985,174.087 88.122 C 174.713 86.910,172.711 86.997,200.039 86.997 L 224.877 86.997 225.485 87.540 M110.617 87.687 C 110.797 87.734,111.092 87.734,111.272 87.687 C 111.452 87.640,111.305 87.602,110.945 87.602 C 110.585 87.602,110.437 87.640,110.617 87.687 M124.836 89.371 C 125.016 89.418,125.311 89.418,125.491 89.371 C 125.671 89.324,125.524 89.286,125.164 89.286 C 124.804 89.286,124.656 89.324,124.836 89.371 M126.520 89.558 C 126.700 89.605,126.995 89.605,127.175 89.558 C 127.355 89.511,127.208 89.473,126.848 89.473 C 126.487 89.473,126.340 89.511,126.520 89.558 M201.179 92.610 C 201.179 93.176,201.214 93.407,201.257 93.124 C 201.299 92.841,201.299 92.378,201.257 92.095 C 201.214 91.812,201.179 92.044,201.179 92.610 M200.814 93.358 C 200.814 94.233,200.846 94.591,200.885 94.153 C 200.925 93.716,200.925 93.000,200.885 92.563 C 200.846 92.126,200.814 92.484,200.814 93.358 M198.971 92.984 C 198.907 93.087,198.881 93.178,198.913 93.186 C 199.529 93.338,199.634 93.313,199.426 93.063 C 199.164 92.747,199.122 92.740,198.971 92.984 M197.300 94.047 C 197.152 94.433,197.825 95.195,198.027 94.869 C 198.102 94.748,198.051 94.681,197.909 94.710 C 197.773 94.738,197.684 94.650,197.713 94.514 C 197.742 94.371,197.675 94.321,197.552 94.397 C 197.408 94.486,197.381 94.402,197.467 94.130 C 197.616 93.660,197.475 93.591,197.300 94.047 M195.359 94.568 L 194.928 94.806 195.331 94.911 C 195.553 94.969,195.684 94.967,195.623 94.906 C 195.563 94.846,195.607 94.683,195.721 94.545 C 195.966 94.250,195.932 94.252,195.359 94.568 M122.769 96.015 C 122.421 96.362,122.478 98.157,122.840 98.296 C 123.297 98.471,123.424 98.420,123.059 98.208 C 122.818 98.067,122.732 97.776,122.732 97.100 C 122.732 96.424,122.818 96.133,123.059 95.993 C 123.239 95.888,123.298 95.799,123.190 95.796 C 123.082 95.793,122.892 95.891,122.769 96.015 M125.376 97.601 C 125.359 97.995,125.241 98.224,125.023 98.281 C 124.717 98.361,124.717 98.368,125.029 98.388 C 125.423 98.414,125.600 98.046,125.485 97.441 C 125.420 97.103,125.396 97.138,125.376 97.601 M108.231 103.592 C 108.540 103.642,108.862 103.780,108.947 103.899 C 109.052 104.046,109.078 104.025,109.027 103.835 C 108.981 103.663,108.705 103.545,108.311 103.528 C 107.724 103.504,107.718 103.510,108.231 103.592 M117.540 104.339 C 117.720 104.386,118.014 104.386,118.195 104.339 C 118.375 104.291,118.227 104.253,117.867 104.253 C 117.507 104.253,117.360 104.291,117.540 104.339 M107.229 106.822 C 105.663 107.355,103.648 109.550,103.648 110.723 C 103.648 110.961,104.089 111.345,105.004 111.901 C 106.545 112.840,107.907 114.454,108.453 115.989 C 108.973 117.455,109.068 116.818,109.071 111.821 C 109.075 106.062,109.118 106.179,107.229 106.822 M104.104 107.437 L 103.555 108.045 104.163 107.495 C 104.497 107.193,104.771 106.920,104.771 106.887 C 104.771 106.743,104.616 106.870,104.104 107.437 M108.700 111.132 C 108.700 113.499,108.664 115.435,108.621 115.435 C 108.578 115.435,108.350 115.119,108.114 114.733 C 107.420 113.599,105.907 112.103,104.834 111.488 C 103.708 110.845,103.698 110.818,104.199 109.862 C 104.907 108.509,106.303 107.281,107.442 107.010 C 108.801 106.687,108.700 106.356,108.700 111.132 M123.136 107.515 C 123.119 107.841,123.057 108.262,122.998 108.451 C 122.896 108.774,122.902 108.775,123.103 108.462 C 123.220 108.280,123.282 107.859,123.241 107.526 L 123.166 106.922 123.136 107.515 M117.488 109.010 C 117.594 109.062,117.680 109.259,117.680 109.448 C 117.680 109.637,117.594 109.834,117.488 109.886 C 117.383 109.938,117.404 109.960,117.535 109.933 C 117.666 109.906,117.774 109.688,117.774 109.448 C 117.774 109.208,117.666 108.990,117.535 108.963 C 117.404 108.937,117.383 108.958,117.488 109.010 M118.990 109.355 C 118.707 109.695,119.037 110.204,119.527 110.185 C 119.733 110.177,119.696 110.118,119.411 110.004 C 119.179 109.910,118.990 109.745,118.990 109.635 C 118.990 109.526,119.179 109.360,119.411 109.267 C 119.696 109.152,119.733 109.094,119.527 109.086 C 119.360 109.079,119.118 109.200,118.990 109.355 M121.097 109.395 C 121.381 109.438,121.802 109.437,122.033 109.393 C 122.263 109.348,122.030 109.313,121.515 109.315 C 121.001 109.316,120.813 109.352,121.097 109.395 M144.247 109.916 C 144.596 110.276,144.924 110.571,144.975 110.571 C 145.027 110.571,144.783 110.276,144.434 109.916 C 144.085 109.556,143.757 109.261,143.706 109.261 C 143.654 109.261,143.898 109.556,144.247 109.916 M142.376 110.629 C 142.376 110.661,142.650 110.935,142.984 111.237 L 143.592 111.787 143.043 111.179 C 142.530 110.612,142.376 110.485,142.376 110.629 M117.843 120.253 C 117.620 120.537,117.623 120.552,117.867 120.364 C 118.022 120.245,118.358 120.109,118.616 120.062 L 119.083 119.976 118.592 119.951 C 118.321 119.937,117.985 120.072,117.843 120.253 M119.359 120.235 C 119.731 120.420,119.603 124.564,119.224 124.655 C 118.974 124.714,118.986 124.728,119.270 124.714 C 119.733 124.692,119.866 120.282,119.406 120.189 C 119.275 120.162,119.254 120.183,119.359 120.235 M120.991 120.418 C 120.919 120.490,120.861 121.505,120.861 122.675 L 120.861 124.801 121.595 125.730 C 122.706 127.135,123.667 130.306,123.667 132.567 C 123.667 133.810,123.970 133.321,124.386 131.407 C 124.892 129.078,125.271 128.141,126.387 126.462 L 127.222 125.207 127.219 123.361 C 127.215 120.956,127.291 121.037,124.761 120.750 C 123.593 120.618,122.297 120.460,121.880 120.399 C 121.463 120.338,121.063 120.346,120.991 120.418 M129.695 120.614 C 129.976 120.688,130.025 121.019,130.075 123.165 L 130.133 125.631 130.174 123.059 C 130.215 120.498,130.213 120.487,129.794 120.508 C 129.486 120.524,129.459 120.552,129.695 120.614 M125.210 121.077 L 126.848 121.288 126.848 123.344 L 126.848 125.400 126.165 126.349 C 125.335 127.505,124.773 128.761,124.310 130.496 L 123.960 131.805 123.803 130.964 C 123.293 128.236,122.557 126.319,121.713 125.517 C 121.261 125.089,121.241 124.978,121.238 122.848 L 121.235 120.625 122.404 120.745 C 123.047 120.811,124.310 120.960,125.210 121.077 " stroke="none" fill="#3fa6c6" fill-rule="evenodd"></path><path id="path4" d="M122.058 40.895 C 119.039 42.488,118.652 46.149,121.239 48.630 C 122.135 49.489,122.190 49.595,122.135 50.357 L 122.077 51.169 121.328 51.161 C 120.917 51.157,119.738 51.052,118.709 50.929 C 109.213 49.794,110.761 49.714,105.800 51.598 C 104.153 52.223,100.870 53.459,98.503 54.345 C 92.309 56.663,92.236 56.754,92.236 62.148 C 92.236 64.783,92.199 65.076,91.684 66.582 C 90.467 70.137,90.528 73.906,91.843 76.483 C 92.218 77.218,92.236 77.529,92.239 83.295 C 92.243 92.148,92.342 92.331,97.452 92.906 C 101.027 93.307,103.762 93.625,109.261 94.278 C 115.633 95.035,117.017 95.198,118.288 95.340 C 118.880 95.406,119.364 95.528,119.364 95.611 C 119.364 95.695,118.880 95.947,118.288 96.170 C 114.739 97.513,111.974 98.535,110.664 98.989 L 109.167 99.508 109.074 100.815 C 108.962 102.376,109.147 102.199,107.203 102.604 C 103.406 103.395,100.111 106.584,99.450 110.107 C 99.249 111.181,99.046 111.460,98.365 111.604 C 96.017 112.101,94.265 114.184,93.734 117.110 C 93.445 118.702,93.631 118.990,94.946 118.990 C 95.504 118.990,96.166 119.084,96.419 119.199 C 96.800 119.372,97.063 119.324,97.971 118.911 C 99.558 118.190,99.630 118.135,99.580 117.692 C 99.252 114.826,102.319 115.882,102.992 118.867 C 103.108 119.385,103.325 119.841,103.473 119.881 C 103.648 119.928,103.670 119.900,103.537 119.799 C 103.424 119.714,103.280 119.254,103.216 118.778 C 102.800 115.665,99.345 114.593,99.345 117.577 C 99.345 118.062,99.264 118.241,99.045 118.241 C 98.880 118.241,98.331 118.449,97.825 118.703 C 97.097 119.069,96.807 119.127,96.430 118.984 C 96.168 118.884,95.496 118.803,94.936 118.803 L 93.920 118.803 93.923 117.914 C 93.936 115.149,95.849 112.551,98.362 111.889 C 99.228 111.660,99.573 111.198,99.796 109.963 C 100.433 106.448,104.723 102.713,108.125 102.713 C 109.093 102.713,109.261 102.457,109.261 100.986 C 109.261 100.122,109.337 99.687,109.495 99.645 C 110.916 99.262,119.567 96.020,119.822 95.774 C 120.266 95.348,119.319 95.165,113.096 94.476 C 112.273 94.385,110.505 94.180,109.167 94.022 C 107.830 93.863,105.978 93.650,105.051 93.547 C 104.125 93.445,102.315 93.231,101.029 93.073 C 99.743 92.914,97.947 92.703,97.040 92.604 C 92.670 92.126,92.740 92.267,92.613 83.630 C 92.518 77.189,92.503 76.968,92.102 76.330 C 90.871 74.370,90.766 70.134,91.869 66.978 C 92.464 65.274,92.494 65.054,92.597 61.646 C 92.750 56.579,92.492 56.879,98.690 54.567 C 99.925 54.106,102.746 53.041,104.958 52.199 C 110.800 49.976,109.830 50.108,115.332 50.791 C 117.385 51.046,119.796 51.310,120.691 51.378 L 122.316 51.501 122.440 50.938 C 122.642 50.019,122.361 49.354,121.349 48.352 C 118.868 45.896,119.363 42.425,122.389 41.067 C 127.083 38.961,130.473 44.865,126.682 48.543 C 125.772 49.426,125.725 49.519,125.725 50.445 C 125.725 52.145,125.427 51.992,129.654 52.475 C 131.043 52.634,132.853 52.847,133.676 52.949 C 134.500 53.051,138.793 53.554,143.218 54.068 C 154.229 55.346,153.743 55.261,154.558 56.055 C 155.606 57.076,155.659 57.476,155.659 64.206 C 155.659 70.221,155.664 70.285,156.106 71.202 C 157.504 74.099,157.375 79.242,155.830 82.177 C 155.736 82.356,155.659 83.937,155.659 85.691 C 155.659 90.564,155.462 90.869,151.356 92.326 C 150.276 92.710,149.139 93.135,148.831 93.270 C 147.850 93.700,138.749 97.070,138.213 97.201 C 137.510 97.374,137.568 97.595,138.354 97.743 L 139.008 97.865 139.008 101.875 L 139.008 105.884 139.560 106.169 C 139.864 106.326,140.205 106.455,140.317 106.455 C 142.795 106.455,147.533 111.544,148.367 115.100 C 148.662 116.358,148.691 116.392,150.144 117.107 C 152.393 118.214,153.940 120.676,154.267 123.667 L 154.379 124.696 153.382 125.048 C 152.286 125.435,151.636 125.469,149.953 125.230 L 148.831 125.070 148.736 124.135 C 148.424 121.069,144.995 119.836,144.995 122.789 C 144.995 123.793,143.147 124.354,140.930 124.024 C 139.140 123.758,139.162 123.799,139.732 121.744 C 140.334 119.571,141.579 118.215,143.559 117.575 C 144.989 117.113,145.088 116.973,144.808 115.807 C 144.347 113.886,142.098 111.152,140.273 110.296 C 139.031 109.714,139.008 109.772,139.008 113.534 L 139.008 116.883 138.120 117.131 C 136.876 117.478,132.080 119.330,131.572 119.660 C 131.164 119.925,131.151 120.029,131.151 122.919 L 131.151 125.905 131.822 126.955 C 133.279 129.232,134.632 135.934,134.229 138.879 C 133.743 142.432,123.967 143.004,123.488 139.507 C 123.366 138.620,123.303 138.606,121.609 139.095 C 119.033 139.838,111.098 140.285,109.827 139.759 C 108.588 139.245,109.411 137.159,111.482 135.566 C 112.625 134.686,112.843 134.304,113.089 132.741 C 113.467 130.350,114.884 126.870,116.385 124.646 C 117.000 123.734,117.227 120.209,116.698 119.782 C 116.456 119.587,114.673 119.275,112.722 119.087 C 112.105 119.028,111.263 118.930,110.851 118.869 C 110.440 118.809,110.150 118.810,110.208 118.870 C 110.310 118.978,113.139 119.410,115.295 119.647 C 116.630 119.794,116.745 119.977,116.745 121.972 C 116.745 123.579,116.682 123.756,115.423 125.725 C 114.297 127.484,113.194 130.587,112.628 133.583 C 112.461 134.466,112.335 134.678,111.736 135.079 C 109.345 136.680,108.286 139.047,109.583 139.893 C 110.758 140.659,118.356 140.189,122.872 139.069 C 123.255 138.974,123.293 139.031,123.293 139.702 C 123.293 142.529,130.873 142.966,133.837 140.311 L 134.425 139.785 134.393 137.573 C 134.328 133.102,133.575 129.434,132.266 127.209 L 131.338 125.632 131.338 122.895 C 131.338 119.580,130.929 120.026,135.529 118.317 L 139.102 116.989 139.153 113.738 C 139.182 111.950,139.270 110.421,139.351 110.341 C 139.918 109.774,143.031 112.560,144.027 114.526 C 144.926 116.301,144.832 116.891,143.583 117.296 C 141.029 118.125,139.562 120.029,139.261 122.904 C 139.149 123.979,139.151 123.985,139.686 124.092 C 142.724 124.698,145.182 124.159,145.182 122.886 C 145.182 122.254,145.659 121.235,145.954 121.235 C 147.047 121.235,148.369 122.788,148.508 124.236 C 148.617 125.370,148.492 125.289,150.530 125.538 C 152.741 125.809,154.398 125.249,154.507 124.192 C 154.775 121.611,152.575 117.975,149.946 116.651 C 148.942 116.146,148.815 116.015,148.671 115.341 C 147.798 111.256,144.348 107.517,140.131 106.086 L 139.289 105.800 139.239 101.731 C 139.208 99.231,139.117 97.661,139.005 97.661 C 138.904 97.661,138.821 97.587,138.821 97.496 C 138.821 97.328,139.234 97.153,142.750 95.829 C 145.352 94.849,148.771 93.558,151.590 92.491 C 155.632 90.962,155.836 90.649,155.842 85.991 C 155.846 83.078,155.884 82.730,156.326 81.504 C 157.689 77.726,157.712 73.870,156.389 71.229 L 155.847 70.148 155.846 64.026 C 155.845 60.481,155.765 57.618,155.655 57.224 C 155.361 56.162,154.079 55.092,152.937 54.954 C 152.428 54.892,148.728 54.456,144.715 53.983 C 140.702 53.511,136.071 52.962,134.425 52.764 C 132.778 52.566,130.230 52.259,128.761 52.082 C 125.757 51.721,125.752 51.717,125.969 50.097 C 126.053 49.473,126.238 49.187,126.953 48.576 C 131.035 45.086,126.777 38.405,122.058 40.895 M122.310 41.734 C 120.864 42.497,120.119 44.594,120.675 46.331 C 121.874 50.071,127.783 48.960,127.783 44.995 C 127.783 42.246,124.757 40.443,122.310 41.734 M125.717 41.904 C 128.526 43.337,128.040 47.490,124.969 48.291 C 121.026 49.321,118.937 44.021,122.443 41.883 C 123.216 41.412,124.771 41.422,125.717 41.904 M123.106 51.225 C 123.106 52.111,123.194 52.773,123.330 52.909 C 123.650 53.229,124.512 53.187,124.802 52.838 C 125.094 52.486,125.163 49.928,124.883 49.831 C 124.765 49.789,124.719 50.320,124.757 51.263 C 124.824 52.904,124.697 53.105,123.746 52.866 C 123.273 52.747,123.266 52.721,123.326 51.255 C 123.359 50.436,123.323 49.765,123.246 49.766 C 123.169 49.766,123.106 50.423,123.106 51.225 M99.205 63.173 C 99.021 63.248,98.971 65.736,98.971 74.735 C 98.971 83.689,99.022 86.242,99.205 86.382 C 99.333 86.481,100.617 86.705,102.058 86.879 C 104.810 87.213,118.015 88.765,120.580 89.056 C 127.092 89.797,131.378 90.309,132.313 90.458 C 133.433 90.638,133.396 91.049,133.396 78.681 C 133.396 69.877,133.344 67.358,133.162 67.216 C 132.936 67.039,132.072 66.905,127.352 66.318 C 125.328 66.066,123.679 65.975,124.135 66.141 C 124.238 66.178,126.216 66.428,128.531 66.695 C 131.821 67.075,132.792 67.249,132.975 67.490 C 133.384 68.029,133.308 89.964,132.896 90.122 C 132.571 90.247,131.051 90.090,120.767 88.872 C 117.371 88.470,111.310 87.756,107.297 87.286 C 103.283 86.816,99.811 86.389,99.579 86.336 L 99.158 86.242 99.158 74.827 L 99.158 63.412 99.579 63.242 C 99.811 63.149,99.874 63.075,99.719 63.076 C 99.565 63.078,99.333 63.122,99.205 63.173 M100.935 63.411 C 102.750 63.718,107.527 64.220,107.784 64.130 C 107.928 64.080,107.413 63.980,106.642 63.907 C 105.870 63.834,104.775 63.699,104.210 63.607 C 103.644 63.516,102.465 63.399,101.590 63.347 C 100.341 63.272,100.201 63.286,100.935 63.411 M109.074 64.372 C 109.640 64.457,111.955 64.742,114.219 65.007 C 116.483 65.271,119.349 65.613,120.588 65.765 C 122.870 66.047,123.793 66.107,123.651 65.965 C 123.575 65.888,122.308 65.726,117.680 65.198 C 116.394 65.052,114.626 64.845,113.751 64.739 C 110.057 64.291,108.955 64.176,108.513 64.196 C 108.255 64.208,108.508 64.287,109.074 64.372 M147.269 66.633 C 145.614 67.452,143.073 72.033,143.140 74.074 C 143.149 74.339,143.318 73.924,143.516 73.152 C 144.529 69.202,146.955 66.147,148.803 66.493 C 149.353 66.596,152.682 69.022,152.822 69.422 C 152.857 69.520,152.505 69.970,152.040 70.421 C 149.174 73.207,148.361 80.265,150.516 83.649 L 151.159 84.659 149.153 85.631 C 145.907 87.204,144.745 86.700,143.488 83.171 C 143.303 82.652,143.146 82.366,143.138 82.537 C 143.104 83.303,143.993 85.070,144.841 85.921 C 146.022 87.107,146.476 87.100,149.237 85.852 C 151.537 84.813,151.582 84.757,150.888 83.816 C 148.467 80.535,149.366 72.825,152.459 70.340 C 153.474 69.524,153.473 69.522,151.540 68.007 C 149.101 66.096,148.648 65.950,147.269 66.633 M92.078 68.607 C 91.959 68.830,91.868 69.291,91.876 69.632 C 91.884 69.973,91.934 70.147,91.986 70.018 C 92.228 69.416,92.423 70.144,92.423 71.656 C 92.423 73.167,92.228 73.896,91.986 73.294 C 91.934 73.165,91.886 73.312,91.879 73.620 C 91.863 74.387,92.163 74.854,92.420 74.462 C 92.635 74.134,92.652 69.117,92.439 68.573 C 92.298 68.211,92.290 68.212,92.078 68.607 M152.956 70.897 C 152.634 71.252,152.648 71.260,153.566 71.253 C 154.082 71.249,154.701 71.301,154.941 71.368 C 155.358 71.484,155.354 71.467,154.854 71.011 C 154.226 70.439,153.415 70.390,152.956 70.897 M91.731 71.656 C 91.731 72.222,91.766 72.453,91.808 72.170 C 91.851 71.887,91.851 71.424,91.808 71.141 C 91.766 70.858,91.731 71.090,91.731 71.656 M103.832 72.003 C 102.886 72.506,102.339 73.567,102.370 74.836 L 102.396 75.865 102.519 74.743 C 102.717 72.934,103.304 72.202,104.851 71.831 C 105.371 71.707,105.381 71.692,104.955 71.675 C 104.696 71.664,104.191 71.812,103.832 72.003 M106.186 72.107 C 106.501 72.244,107.084 72.725,107.480 73.176 C 108.069 73.844,108.134 73.883,107.834 73.387 C 107.415 72.697,106.338 71.839,105.904 71.850 C 105.744 71.854,105.871 71.970,106.186 72.107 M153.154 72.139 C 152.970 72.618,153.023 72.687,153.292 72.319 C 153.691 71.772,154.458 72.076,154.908 72.960 C 156.282 75.652,155.265 81.229,153.200 82.335 C 152.629 82.640,152.052 82.368,152.153 81.839 C 152.200 81.595,152.166 81.440,152.078 81.495 C 151.574 81.806,152.102 82.694,152.791 82.694 C 155.069 82.694,156.714 75.955,155.173 72.936 C 154.638 71.887,153.433 71.411,153.154 72.139 M153.317 75.622 C 153.315 77.094,153.368 78.045,153.435 77.736 C 153.594 77.005,153.599 73.931,153.443 73.377 C 153.376 73.141,153.319 74.151,153.317 75.622 M128.625 74.636 C 129.768 74.912,130.727 75.791,131.052 76.862 C 131.125 77.101,131.222 77.260,131.266 77.215 C 131.824 76.658,129.567 74.433,128.494 74.481 C 128.142 74.497,128.166 74.525,128.625 74.636 M126.113 75.347 C 125.797 75.730,125.540 76.172,125.542 76.329 C 125.544 76.486,125.683 76.337,125.850 75.998 C 126.017 75.659,126.363 75.217,126.619 75.016 C 126.875 74.814,126.996 74.649,126.886 74.649 C 126.777 74.649,126.429 74.963,126.113 75.347 M112.546 75.754 C 112.488 75.848,112.610 75.880,112.816 75.826 C 113.023 75.772,113.339 75.843,113.518 75.984 C 113.814 76.215,113.820 76.209,113.588 75.912 C 113.314 75.563,112.720 75.473,112.546 75.754 M142.651 77.359 C 142.579 78.129,142.599 79.245,142.696 79.838 C 142.855 80.805,142.875 80.661,142.889 78.438 C 142.907 75.629,142.841 75.329,142.651 77.359 M114.032 76.702 C 114.652 77.466,114.796 77.601,115.531 78.100 C 115.918 78.363,116.371 78.575,116.537 78.571 C 116.703 78.567,116.566 78.445,116.233 78.300 C 115.900 78.156,115.185 77.633,114.643 77.139 C 114.101 76.644,113.826 76.448,114.032 76.702 M102.875 76.844 C 103.588 78.158,105.714 79.023,106.642 78.377 C 106.851 78.231,106.773 78.211,106.330 78.298 C 105.261 78.508,104.392 78.210,103.515 77.332 C 103.064 76.881,102.777 76.662,102.875 76.844 M112.444 76.624 C 112.431 77.704,115.755 80.708,116.613 80.391 C 116.737 80.346,116.586 80.243,116.277 80.163 C 115.086 79.856,113.733 78.688,112.925 77.268 C 112.662 76.805,112.445 76.515,112.444 76.624 M120.476 77.191 C 119.651 78.049,118.957 78.407,117.781 78.580 C 116.864 78.715,116.859 78.719,117.587 78.738 C 118.567 78.763,119.732 78.219,120.495 77.381 C 121.507 76.269,122.309 76.702,121.735 78.050 C 121.397 78.844,120.748 79.438,119.611 79.995 C 119.115 80.238,118.818 80.440,118.952 80.443 C 119.752 80.462,121.673 78.864,121.984 77.920 C 122.441 76.535,121.530 76.095,120.476 77.191 M125.379 77.456 C 125.361 78.216,125.917 79.888,126.188 79.888 C 126.247 79.888,126.154 79.614,125.981 79.280 C 125.808 78.945,125.606 78.209,125.533 77.643 L 125.400 76.614 125.379 77.456 M107.497 77.605 L 106.963 78.297 107.588 77.695 C 107.932 77.364,108.172 77.052,108.122 77.003 C 108.072 76.953,107.791 77.223,107.497 77.605 M131.381 78.204 C 131.381 78.564,131.420 78.711,131.467 78.531 C 131.514 78.351,131.514 78.057,131.467 77.877 C 131.420 77.696,131.381 77.844,131.381 78.204 M152.970 78.866 C 152.906 79.033,152.861 79.353,152.870 79.576 C 152.882 79.863,152.940 79.798,153.068 79.353 C 153.254 78.705,153.178 78.325,152.970 78.866 M130.952 79.747 C 130.836 79.979,130.518 80.370,130.244 80.617 C 129.756 81.057,129.756 81.060,130.215 80.782 C 130.644 80.523,131.509 79.326,131.268 79.326 C 131.211 79.326,131.069 79.516,130.952 79.747 M152.479 80.543 C 152.370 80.828,152.323 81.104,152.375 81.156 C 152.426 81.207,152.557 81.015,152.666 80.730 C 152.775 80.444,152.822 80.168,152.770 80.116 C 152.719 80.065,152.588 80.257,152.479 80.543 M117.448 80.581 C 117.681 80.626,118.018 80.624,118.197 80.578 C 118.376 80.531,118.185 80.494,117.774 80.496 C 117.362 80.498,117.216 80.537,117.448 80.581 M128.204 81.208 C 128.487 81.287,128.950 81.287,129.233 81.208 C 129.633 81.097,129.519 81.065,128.718 81.065 C 127.918 81.065,127.804 81.097,128.204 81.208 M151.356 83.027 C 151.356 83.804,152.392 84.206,153.312 83.787 C 153.994 83.476,153.901 83.301,153.050 83.289 C 152.644 83.284,152.144 83.190,151.940 83.080 C 151.498 82.844,151.356 82.831,151.356 83.027 M174.697 87.418 C 174.455 87.650,174.417 87.713,174.613 87.558 C 174.926 87.312,178.035 87.278,200.014 87.278 L 225.060 87.278 225.486 87.704 C 225.910 88.128,225.912 88.159,225.912 93.567 L 225.912 99.003 225.387 99.455 L 224.862 99.906 200.015 99.906 C 175.176 99.906,175.167 99.906,174.675 99.519 C 174.360 99.271,174.220 99.228,174.286 99.400 C 174.625 100.285,174.744 100.289,199.065 100.401 C 222.610 100.510,224.756 100.441,225.640 99.546 C 226.545 98.630,226.756 95.000,226.224 89.458 C 226.106 88.221,226.032 88.029,225.485 87.540 L 224.877 86.997 200.007 86.997 L 175.138 86.997 174.697 87.418 M173.921 88.416 C 173.756 88.846,173.781 98.746,173.948 98.849 C 174.025 98.896,174.088 96.502,174.088 93.528 C 174.088 90.553,174.076 88.120,174.061 88.120 C 174.046 88.120,173.983 88.253,173.921 88.416 M195.267 92.180 C 195.624 92.249,195.688 92.402,195.746 93.323 L 195.813 94.387 195.849 93.218 C 195.884 92.053,195.882 92.049,195.370 92.074 C 194.942 92.095,194.925 92.113,195.267 92.180 M205.739 93.518 C 205.837 93.893,205.775 93.920,204.793 93.920 C 203.699 93.920,203.514 94.069,204.069 94.505 C 204.366 94.737,204.373 94.731,204.140 94.434 C 203.902 94.131,203.956 94.107,204.847 94.107 C 205.840 94.107,206.276 93.759,205.835 93.319 C 205.691 93.175,205.664 93.232,205.739 93.518 M194.013 94.096 C 194.013 94.398,194.080 94.687,194.161 94.737 C 194.242 94.788,194.275 94.540,194.234 94.187 C 194.142 93.401,194.013 93.347,194.013 94.096 M202.059 94.171 C 202.316 94.463,202.694 94.789,202.900 94.895 C 203.294 95.098,203.282 95.086,202.246 94.199 L 201.592 93.639 202.059 94.171 M122.658 95.739 C 122.435 95.962,122.542 96.213,122.778 96.022 C 122.994 95.849,125.072 96.011,125.278 96.217 C 125.322 96.261,125.377 96.745,125.401 97.294 L 125.444 98.291 124.722 98.445 C 123.456 98.716,122.581 98.351,122.493 97.517 L 122.420 96.819 122.389 97.619 C 122.346 98.700,123.731 99.177,125.243 98.602 C 125.966 98.327,125.915 96.279,125.177 96.002 C 124.566 95.773,122.808 95.589,122.658 95.739 M107.297 103.456 C 107.032 103.572,107.223 103.610,107.951 103.587 L 108.980 103.555 109.037 104.338 C 109.102 105.233,108.922 105.391,107.604 105.592 C 105.443 105.923,103.259 107.969,102.521 110.355 C 102.012 111.998,100.536 112.149,100.588 110.553 C 100.662 108.263,103.279 105.118,106.046 103.996 C 106.781 103.697,106.820 103.659,106.290 103.758 C 103.681 104.244,100.114 108.508,100.317 110.898 C 100.426 112.192,102.371 112.110,102.616 110.801 C 103.044 108.520,105.511 106.128,107.796 105.779 C 109.159 105.570,109.287 105.441,109.224 104.338 L 109.167 103.368 108.419 103.330 C 108.007 103.309,107.502 103.365,107.297 103.456 M114.005 103.979 C 113.888 104.054,114.646 104.121,115.689 104.126 C 116.733 104.132,117.376 104.077,117.119 104.005 C 116.486 103.826,114.271 103.808,114.005 103.979 M112.829 104.702 C 112.247 105.443,112.282 107.332,112.897 108.307 C 113.539 109.323,114.352 109.751,116.065 109.975 C 117.809 110.203,118.054 110.138,118.054 109.448 C 118.054 108.816,117.802 108.702,116.186 108.603 L 114.967 108.529 116.168 108.700 C 117.757 108.926,117.904 108.996,117.834 109.494 C 117.769 109.951,117.753 109.953,115.772 109.730 C 113.833 109.513,112.629 108.279,112.629 106.511 C 112.629 105.489,112.984 104.510,113.420 104.335 C 113.583 104.269,113.588 104.234,113.437 104.224 C 113.316 104.216,113.043 104.431,112.829 104.702 M119.083 104.407 C 119.495 104.493,120.042 104.557,120.299 104.551 C 121.042 104.533,119.815 104.254,118.990 104.253 L 118.335 104.253 119.083 104.407 M122.544 105.099 C 124.151 105.901,124.542 108.558,123.231 109.760 C 122.856 110.103,122.616 110.384,122.698 110.384 C 123.233 110.384,124.107 109.033,124.186 108.084 C 124.310 106.586,123.217 104.770,122.192 104.771 C 122.026 104.771,122.184 104.919,122.544 105.099 M113.947 105.287 C 113.134 105.946,113.457 108.341,114.356 108.320 C 114.503 108.316,114.478 108.247,114.290 108.137 C 113.828 107.867,113.506 106.914,113.639 106.207 C 113.816 105.262,114.305 105.085,116.097 105.320 C 116.916 105.427,118.471 105.610,119.551 105.725 C 121.930 105.980,122.669 106.280,122.902 107.084 C 123.016 107.479,123.077 107.546,123.089 107.291 C 123.140 106.136,122.414 105.856,118.014 105.331 C 114.236 104.880,114.447 104.882,113.947 105.287 M107.045 106.625 C 105.810 107.051,104.258 108.520,103.635 109.851 C 103.119 110.952,103.203 111.169,104.383 111.800 C 106.879 113.135,108.399 115.423,108.755 118.382 C 108.834 119.034,108.796 119.178,108.542 119.183 C 108.371 119.186,107.818 119.391,107.311 119.639 C 106.503 120.035,106.277 120.069,105.462 119.914 C 104.317 119.697,104.161 119.695,104.287 119.898 C 104.543 120.313,106.451 120.275,107.531 119.834 C 108.971 119.246,109.791 118.805,109.448 118.804 C 109.203 118.803,109.175 118.038,109.228 112.805 C 109.301 105.603,109.378 105.820,107.045 106.625 M135.096 106.612 C 134.864 107.044,134.831 107.944,135.036 108.253 C 135.186 108.480,135.797 108.617,137.792 108.870 C 141.002 109.276,144.130 111.914,145.285 115.188 C 145.533 115.890,145.738 116.320,145.740 116.144 C 145.777 113.117,141.422 109.188,137.365 108.589 C 135.044 108.245,135.079 108.262,135.082 107.536 C 135.087 106.483,135.198 106.430,136.962 106.648 C 141.848 107.252,144.878 109.341,146.857 113.471 C 147.936 115.724,147.978 116.450,147.053 116.877 C 146.475 117.145,146.847 117.188,147.520 116.932 C 147.984 116.756,148.005 116.695,147.884 115.856 C 147.224 111.284,142.556 107.022,137.699 106.556 C 137.030 106.492,136.216 106.393,135.891 106.336 C 135.423 106.254,135.256 106.312,135.096 106.612 M108.880 106.817 C 109.106 107.238,109.147 116.340,108.925 116.689 C 108.835 116.831,108.659 116.569,108.453 115.989 C 107.907 114.454,106.545 112.840,105.004 111.901 C 104.089 111.345,103.648 110.961,103.648 110.723 C 103.648 109.550,105.663 107.355,107.229 106.822 C 108.521 106.383,108.648 106.382,108.880 106.817 M118.927 109.012 C 118.692 109.247,118.800 109.496,119.048 109.290 C 119.183 109.178,119.625 109.124,120.031 109.171 C 120.623 109.239,120.675 109.223,120.299 109.090 C 119.716 108.883,119.091 108.847,118.927 109.012 M118.803 109.966 C 118.803 110.269,119.334 110.396,120.946 110.477 L 122.451 110.552 120.877 110.372 C 120.012 110.273,119.191 110.099,119.053 109.984 C 118.895 109.853,118.803 109.847,118.803 109.966 M113.786 114.153 C 113.858 114.871,114.350 115.246,114.827 114.946 C 115.578 114.473,115.217 113.564,114.278 113.564 C 113.773 113.564,113.732 113.613,113.786 114.153 M114.872 114.029 C 115.206 114.432,114.958 114.912,114.454 114.840 C 113.883 114.759,113.719 113.751,114.277 113.751 C 114.477 113.751,114.745 113.876,114.872 114.029 M121.731 114.772 C 121.524 115.314,122.000 116.021,122.532 115.959 C 123.332 115.866,123.240 114.615,122.428 114.536 C 122.032 114.498,121.808 114.574,121.731 114.772 M122.825 115.248 C 122.825 115.954,122.098 115.899,122.016 115.186 C 121.963 114.726,122.012 114.665,122.390 114.719 C 122.713 114.764,122.825 114.901,122.825 115.248 M117.820 119.940 C 117.308 120.239,117.338 123.886,117.857 124.405 C 118.278 124.826,119.495 125.107,119.758 124.844 C 119.859 124.744,119.914 123.650,119.884 122.342 L 119.832 120.019 119.364 119.974 C 118.898 119.929,118.898 119.930,119.323 120.110 C 119.738 120.286,119.748 120.355,119.697 122.494 L 119.645 124.696 119.013 124.666 C 118.014 124.618,117.891 124.357,117.853 122.204 C 117.818 120.226,117.875 120.027,118.522 119.871 L 118.896 119.781 118.522 119.765 C 118.316 119.757,118.000 119.835,117.820 119.940 M120.814 120.219 C 120.737 120.297,120.674 121.403,120.674 122.675 L 120.674 124.988 121.408 125.917 C 122.762 127.630,123.530 130.877,123.464 134.604 C 123.442 135.794,123.503 136.490,123.631 136.533 C 123.840 136.603,123.878 136.428,124.238 133.770 C 124.694 130.404,125.512 128.050,126.867 126.203 C 127.392 125.487,127.409 125.396,127.409 123.263 C 127.409 120.645,127.563 120.808,124.790 120.487 C 121.510 120.107,120.960 120.070,120.814 120.219 M129.373 120.339 C 128.214 120.744,128.157 120.886,128.157 123.407 L 128.157 125.708 128.811 125.831 C 129.170 125.898,129.678 125.900,129.938 125.834 L 130.412 125.715 130.360 122.976 C 130.306 120.072,130.286 120.021,129.373 120.339 M124.761 120.750 C 127.291 121.037,127.215 120.956,127.219 123.361 L 127.222 125.207 126.387 126.462 C 125.271 128.141,124.892 129.078,124.386 131.407 C 123.970 133.321,123.667 133.810,123.667 132.567 C 123.667 130.306,122.706 127.135,121.595 125.730 L 120.861 124.801 120.861 122.675 C 120.861 120.249,120.860 120.249,121.880 120.399 C 122.297 120.460,123.593 120.618,124.761 120.750 M130.215 122.992 C 130.215 125.776,130.184 125.841,128.974 125.614 L 128.344 125.496 128.344 123.263 L 128.344 121.030 128.952 120.765 C 130.219 120.215,130.215 120.208,130.215 122.992 " stroke="none" fill="#5b7385" fill-rule="evenodd"></path></g></svg>